<?xml version="1.0" standalone="no"?>
<!DOCTYPE svg PUBLIC "-//W3C//DTD SVG 20010904//EN"
 "http://www.w3.org/TR/2001/REC-SVG-20010904/DTD/svg10.dtd">
<svg version="1.0" xmlns="http://www.w3.org/2000/svg"
 width="700.000000pt" height="700.000000pt" viewBox="0 0 700.000000 700.000000"
 preserveAspectRatio="xMidYMid meet">
<metadata>
Created by potrace 1.14, written by Peter Selinger 2001-2017
</metadata>
<g transform="translate(0.000000,700.000000) scale(0.100000,-0.100000)"
fill="#000000" stroke="none">
<path d="M290 3901 l0 -2589 365 -1 365 0 0 2225 0 2224 347 -2 347 -3 1
-2215 c1 -1218 3 -2218 3 -2222 1 -3 164 -7 362 -7 270 0 360 3 361 12 0 7 1
1008 1 2225 l1 2212 346 0 346 0 0 -2216 c0 -1219 2 -2220 5 -2224 3 -5 167
-8 365 -7 l360 2 0 2223 0 2222 1057 0 1058 0 0 -2225 0 -2224 363 2 362 2 3
2588 2 2587 -3210 0 -3210 0 0 -2589z"/>
</g>
</svg>
